<svg width="960" height="851" viewBox="0 0 960 851" fill="none" xmlns="http://www.w3.org/2000/svg">
<path d="M0.600098 48.9271H959.93M0.600098 240.779L959.93 240.779M0.600098 336.705L959.93 336.705M0.600098 144.853L959.93 144.853M0.600098 432.631L959.93 432.631M0.600098 528.557L959.93 528.557M0.600098 624.483L959.93 624.483M0.600098 720.409L959.93 720.409M0.600098 816.335L959.93 816.335M0.600098 912.261L959.93 912.261M0.600098 1008.19L959.93 1008.19M911.929 0.93V1056.19M816.003 0.93L816.003 1056.19M720.077 0.93L720.077 1056.19M624.151 0.93L624.151 1056.19M528.226 0.93V1056.19M432.3 0.93L432.3 1056.19M336.373 0.93L336.373 1056.19M240.447 0.93L240.447 1056.19M144.522 0.93L144.522 1056.19M48.5958 0.929993V1056.19" stroke="white" stroke-opacity="0.2" stroke-width="0.887037" stroke-dasharray="4.44 4.44"/>
</svg>
